<?xml version="1.0" standalone="no"?>
<!DOCTYPE svg PUBLIC "-//W3C//DTD SVG 20010904//EN"
 "http://www.w3.org/TR/2001/REC-SVG-20010904/DTD/svg10.dtd">
<svg version="1.0" xmlns="http://www.w3.org/2000/svg"
 width="196.000000pt" height="36.000000pt" viewBox="0 0 196.000000 36.000000"
 preserveAspectRatio="xMidYMid meet">
<metadata>
Created by potrace 1.16, written by Peter Selinger 2001-2019
</metadata>
<g transform="translate(0.000000,36.000000) scale(0.100000,-0.100000)"
fill="#ffffff" stroke="none">
<path d="M185 253 c-22 -12 -59 -25 -82 -29 -24 -3 -43 -8 -43 -11 0 -2 11
-19 25 -37 13 -18 31 -49 40 -69 8 -20 19 -37 25 -37 5 0 11 -17 13 -38 2 -24
4 -15 4 23 1 33 -2 71 -6 85 -6 22 -2 27 42 47 47 22 50 22 63 6 12 -16 13
-13 14 25 0 48 -6 51 -46 20 -17 -13 -23 -16 -16 -6 8 10 12 23 10 31 -2 10
-12 8 -43 -10z"/>
<path d="M430 180 l0 -100 25 0 c23 0 25 4 25 45 0 45 0 45 35 45 28 0 35 4
35 20 0 16 -7 20 -35 20 -24 0 -35 5 -35 15 0 11 12 15 50 15 43 0 50 3 50 20
0 18 -7 20 -75 20 l-75 0 0 -100z"/>
<path d="M1000 260 c0 -16 -7 -20 -34 -20 -42 0 -66 -29 -66 -80 0 -56 23 -80
75 -80 65 0 75 15 75 116 0 83 0 84 -25 84 -18 0 -25 -5 -25 -20z"/>
<path d="M1330 260 c0 -16 -7 -20 -34 -20 -42 0 -66 -29 -66 -80 0 -55 23 -80
74 -80 64 0 76 19 76 118 0 81 0 82 -25 82 -18 0 -25 -5 -25 -20z"/>
<path d="M1400 180 l0 -100 25 0 c23 0 25 3 25 53 l1 52 32 -52 c26 -43 37
-53 59 -53 l28 0 0 100 c0 99 0 100 -25 100 -22 0 -24 -4 -27 -57 l-3 -58 -33
58 c-26 45 -37 57 -57 57 -25 0 -25 0 -25 -100z"/>
<path d="M1890 265 c0 -10 -10 -15 -29 -15 -18 0 -34 -8 -45 -22 -14 -21 -16
-22 -26 -5 -11 16 -60 25 -60 10 0 -5 9 -23 20 -41 l20 -32 -25 -40 -25 -40
29 0 c18 0 34 7 40 18 10 16 12 16 25 0 13 -17 66 -26 66 -10 0 4 -9 18 -20
32 -25 33 -25 44 5 87 l24 36 3 -79 3 -79 33 -3 c27 -3 32 0 32 17 0 12 -4 21
-10 21 -14 0 -12 66 3 90 8 15 9 23 1 28 -6 4 -13 15 -17 25 -8 21 -47 23 -47
2z"/>
<path d="M590 182 c0 -74 18 -102 66 -102 64 0 74 12 74 91 0 67 -1 70 -22 67
-20 -3 -23 -10 -26 -61 -3 -49 -6 -58 -20 -55 -13 2 -18 16 -20 61 -3 53 -5
57 -27 57 -24 0 -25 -3 -25 -58z"/>
<path d="M766 224 c-11 -11 -16 -35 -16 -80 0 -62 1 -64 25 -64 24 0 25 3 25
53 0 58 4 68 26 60 10 -3 14 -22 14 -59 0 -52 1 -54 26 -54 26 0 26 0 22 66
-3 50 -9 70 -23 80 -25 19 -80 18 -99 -2z"/>
<path d="M1087 222 c-22 -24 -23 -105 -1 -126 20 -21 88 -21 108 0 28 27 19
37 -29 30 -29 -5 -45 -4 -45 3 0 6 20 11 45 11 44 0 45 0 45 33 0 20 -8 41
-18 50 -25 23 -85 22 -105 -1z"/>
<path d="M1607 222 c-22 -24 -23 -105 -1 -126 22 -22 87 -21 107 2 26 29 20
35 -28 28 -29 -5 -45 -4 -45 3 0 6 20 11 45 11 44 0 45 0 45 33 0 20 -8 41
-18 50 -25 23 -85 22 -105 -1z"/>
</g>
</svg>
