<svg width="207" height="116" viewBox="0 0 207 116" fill="none" xmlns="http://www.w3.org/2000/svg">
<path d="M140.624 115.4L92.0449 115.308L138.957 115.19L140.926 115.22C140.826 115.281 140.724 115.341 140.624 115.4ZM73.1981 115.273L63.2919 115.255C59.3302 111.478 56.2631 106.856 54.6573 101.609C53.6441 98.2992 53.3315 94.7717 53.661 91.3064C56.3536 99.9634 62.5215 107.939 71.2631 113.987C71.8898 114.421 72.5405 114.853 73.1981 115.273ZM73.4046 115.091C72.7273 114.66 72.0584 114.216 71.4136 113.771C62.5202 107.616 56.3066 99.4612 53.7336 90.6307C54.7211 82.3641 59.3594 74.5531 66.8401 71.0006C71.4816 68.7979 76.5203 68.3355 81.6855 68.3355C83.5513 68.3355 85.4354 68.3961 87.3213 68.4558C89.208 68.5164 91.0969 68.5771 92.9777 68.5771C94.9366 68.5771 96.8861 68.5112 98.8094 68.3122C98.8697 68.3057 98.9303 68.2989 98.991 68.293L100.071 70.5882L100.469 71.438C101.337 73.2821 103.125 74.377 104.944 74.377C105.6 74.377 106.26 74.2344 106.883 73.9338C109.939 72.4557 111.679 69.2949 111.62 65.9467C112.352 66.0702 113.084 66.174 113.821 66.2563C115.673 66.4628 117.562 66.5303 119.453 66.5303C121.299 66.5303 123.147 66.4654 124.964 66.4022C126.754 66.34 128.559 66.2771 130.36 66.2771C135.318 66.2771 140.243 66.7533 144.7 69.0326C154.682 74.1355 159.934 88.3765 156.406 100.777C156.333 101.034 156.257 101.288 156.176 101.54C153.353 105.528 149.764 109.037 145.801 111.981C146.553 110.543 147.029 108.79 147.06 106.718C147.091 104.652 146.679 102.269 145.656 99.5649L140.674 87.3383L127.327 92.295L132.069 103.09L132.079 103.118L132.08 103.119L108.325 105.777L103.766 104.303C103.114 104.094 102.443 103.99 101.777 103.99C100.332 103.99 98.9073 104.475 97.7476 105.401C93.772 108.576 87.3081 114.429 88.983 114.9C89.2119 114.965 89.4459 115.014 89.6859 115.05L73.4046 115.091ZM92.0374 115.044C94.212 114.779 96.5865 113.933 98.7945 113.379C99.4192 113.222 100.058 113.144 100.692 113.144C101.912 113.144 103.124 113.431 104.227 113.995L106.204 115.008L92.0374 115.044ZM156.665 100.832C160.215 88.32 154.904 73.952 144.821 68.7969C140.316 66.4936 135.358 66.0122 130.37 66.0122C128.562 66.0122 126.75 66.0754 124.955 66.1376C123.142 66.2015 121.299 66.2654 119.458 66.2654C117.574 66.2654 115.692 66.1983 113.851 65.994C113.101 65.91 112.356 65.804 111.612 65.6769C111.607 65.5741 111.601 65.472 111.593 65.3689C116.085 63.9274 120.533 62.258 125.067 60.9751C129.301 59.7774 133.814 58.9507 138.226 58.9507C142.945 58.9507 147.547 59.8961 151.567 62.342C160.514 67.785 164.088 79.7671 161.59 89.9379C160.629 93.857 158.914 97.5048 156.665 100.832Z" fill="#F9F9FF"/>
<path d="M73.3269 115.356L73.2935 115.335C73.2611 115.314 73.229 115.293 73.1966 115.273L92.0434 115.308L73.3269 115.356ZM143.109 115.18C143.222 115.094 143.333 115.006 143.443 114.914L146.079 114.908C151.523 110.559 154.585 106.52 156.175 101.54C156.34 101.306 156.504 101.07 156.664 100.832C156.662 100.838 156.661 100.844 156.659 100.85C155.122 106.253 151.997 110.528 146.207 115.143L146.171 115.172H146.125L143.109 115.18ZM53.6595 91.3064C53.3936 90.4515 53.1615 89.5894 52.964 88.7217C50.3826 77.3741 54.4891 65.2162 62.7282 59.8138C66.3555 57.4343 70.6998 56.2441 75.7148 56.2441C79.5765 56.2441 83.8361 56.9496 88.4751 58.3622C89.3433 58.6268 90.2122 58.9082 91.0788 59.2003C91.1427 59.3158 91.2076 59.4312 91.2721 59.5456C90.3153 59.2195 89.3556 58.9066 88.3979 58.6154C83.7849 57.21 79.5509 56.508 75.7164 56.508C70.752 56.508 66.4567 57.684 62.8731 60.0346C54.7232 65.379 50.664 77.4198 53.2218 88.6637C53.3719 89.3228 53.5421 89.9784 53.7321 90.6307C53.7052 90.8558 53.6809 91.0808 53.6595 91.3064Z" fill="#BDBEFF"/>
<path d="M92.0421 115.308L73.1953 115.273C72.5378 114.853 71.8871 114.421 71.2604 113.987C62.5188 107.939 56.3508 99.9634 53.6582 91.3064C53.6796 91.0807 53.7039 90.8557 53.7308 90.6307C56.3038 99.4612 62.5175 107.616 71.4108 113.771C72.0557 114.216 72.7245 114.66 73.4018 115.091L89.6831 115.05C90.0333 115.102 90.3945 115.127 90.7647 115.127C91.1781 115.127 91.6022 115.097 92.0347 115.044L106.201 115.008L106.516 115.17L137.398 115.166L138.507 115.183L138.954 115.19L92.0421 115.308ZM156.174 101.54C156.254 101.288 156.331 101.034 156.403 100.777C159.931 88.3764 154.68 74.1355 144.697 69.0326C140.24 66.7533 135.316 66.277 130.357 66.277C128.556 66.277 126.751 66.3399 124.961 66.4022C123.144 66.4654 121.296 66.5303 119.45 66.5303C117.559 66.5303 115.671 66.4628 113.818 66.2563C113.082 66.1739 112.349 66.0702 111.617 65.9467C111.617 65.8572 111.613 65.7667 111.609 65.6769C112.353 65.804 113.098 65.91 113.848 65.994C115.69 66.1983 117.571 66.2654 119.455 66.2654C121.296 66.2654 123.14 66.2015 124.952 66.1376C126.747 66.0754 128.56 66.0122 130.367 66.0122C135.355 66.0122 140.313 66.4936 144.818 68.7969C154.901 73.9519 160.212 88.32 156.663 100.832C156.502 101.07 156.339 101.306 156.174 101.54Z" fill="#BBBBFF"/>
<path d="M173.317 102.532C171.624 102.532 170.246 103.771 170.246 105.294C170.246 106.816 171.624 108.054 173.317 108.054C175.011 108.054 176.389 106.816 176.389 105.294C176.389 103.771 175.011 102.532 173.317 102.532ZM173.317 109.695C170.719 109.695 168.605 107.721 168.605 105.294C168.605 102.866 170.719 100.891 173.317 100.891C175.916 100.891 178.03 102.866 178.03 105.294C178.03 107.721 175.916 109.695 173.317 109.695Z" fill="#3335CF"/>
<path d="M171.657 115.144H161.345L159.582 97.2526H173.42L171.657 115.144Z" fill="white"/>
<path d="M161.501 114.968H171.494L173.222 97.4286H159.773L161.501 114.968ZM171.814 115.321H161.182L159.385 97.0759H173.611L171.814 115.321Z" fill="#3335CF"/>
<path d="M169.863 113.658H163.138L161.988 102.441H171.012L169.863 113.658Z" fill="#EBEBFF"/>
<path d="M7.85982 9.82278H5.94822V9.47003H7.85982V9.82278ZM11.682 9.82278H9.77076V9.47003H11.682V9.82278ZM15.5042 9.82278H13.5933V9.47003H15.5042V9.82278ZM19.3268 9.82278H17.4158V9.47003H19.3268V9.82278ZM23.1493 9.82278H21.2381V9.47003H23.1493V9.82278ZM26.9715 9.82278H25.0603V9.47003H26.9715V9.82278ZM30.7941 9.82278H28.8828V9.47003H30.7941V9.82278ZM34.6166 9.82278H32.7054V9.47003H34.6166V9.82278ZM38.4388 9.82278H36.5276V9.47003H38.4388V9.82278ZM42.2166 9.90675C41.9634 9.85099 41.7027 9.82278 41.4408 9.82278H40.3501V9.47003H41.4408C41.728 9.47003 42.0146 9.50083 42.2922 9.56243L42.2166 9.90675ZM2.43531 10.633L2.21225 10.36C2.73132 9.93658 3.35253 9.6503 4.00939 9.53228L4.07165 9.8792C3.47379 9.98651 2.90802 10.2472 2.43531 10.633ZM44.8357 12.2142C44.6314 11.6423 44.2813 11.1268 43.8235 10.7225L44.0563 10.4586C44.5591 10.9018 44.9433 11.4679 45.1677 12.0956L44.8357 12.2142ZM1.10829 13.895H0.755859V13.4268C0.755859 12.9171 0.85118 12.4217 1.03955 11.9535L1.36636 12.0845C1.19518 12.5112 1.10829 12.9628 1.10829 13.4268V13.895ZM45.3972 15.9515H45.0448V14.0409H45.3972V15.9515ZM1.10829 17.7178H0.755859V15.8062H1.10829V17.7178ZM45.3972 19.7747H45.0448V17.8631H45.3972V19.7747ZM1.10829 21.54H0.755859V19.6285H1.10829V21.54ZM45.3972 23.5969H45.0448V21.6853H45.3972V23.5969ZM1.10829 25.3623H0.755859V23.4516H1.10829V25.3623ZM45.3972 27.4188H45.0448V25.5082H45.3972V27.4188ZM1.10829 29.1851H0.755859V27.2735H1.10829V29.1851ZM45.3972 31.242H45.0448V29.3304H45.3972V31.242ZM1.10829 33.0073H0.755859V31.0957H1.10829V33.0073ZM45.3972 35.0642H45.0448V33.1526H45.3972V35.0642ZM1.10829 36.8296H0.755859V34.9189H1.10829V36.8296ZM45.3972 38.8861H45.0448V36.9748H45.3972V38.8861ZM0.808707 40.678C0.773367 40.4647 0.755859 40.2465 0.755859 40.0299V38.7408H1.10829V40.0299C1.10796 40.2274 1.12417 40.4258 1.15627 40.621L0.808707 40.678ZM44.4456 42.6039L44.1775 42.3747C44.575 41.9107 44.8496 41.3514 44.9715 40.7571L45.3168 40.8275C45.1829 41.4808 44.8817 42.0949 44.4456 42.6039ZM3.18782 43.6819C2.57246 43.4245 2.0268 43.0114 1.61082 42.4868L1.88706 42.2677C2.26607 42.7456 2.7631 43.1226 3.32335 43.3567L3.18782 43.6819ZM7.03922 43.9867H5.12795V43.6339H7.03922V43.9867ZM10.8618 43.9867H8.95016V43.6339H10.8618V43.9867ZM14.684 43.9867H12.7727V43.6339H14.684V43.9867ZM18.5062 43.9867H16.5952V43.6339H18.5062V43.9867ZM22.3287 43.9867H20.4178V43.6339H22.3287V43.9867ZM26.1513 43.9867H24.24V43.6339H26.1513V43.9867ZM29.9735 43.9867H28.0622V43.6339H29.9735V43.9867ZM33.796 43.9867H31.8848V43.6339H33.796V43.9867ZM37.6186 43.9867H35.7073V43.6339H37.6186V43.9867ZM41.4408 43.9867H39.5295V43.6339H41.4408C41.8743 43.6339 42.2983 43.5574 42.7004 43.4073L42.8236 43.7377C42.382 43.9027 41.9167 43.9867 41.4408 43.9867Z" fill="#9192FF"/>
<path d="M52.9965 52.7555H12.0768C9.75089 52.7555 7.86523 50.8699 7.86523 48.5442V18.9048C7.86523 16.5792 9.75089 14.6932 12.0768 14.6932H52.9965C55.3224 14.6932 57.2081 16.5792 57.2081 18.9048V48.5442C57.2081 50.8699 55.3224 52.7555 52.9965 52.7555Z" fill="#9192FF"/>
<path d="M17.0282 49.086H12.2129V25.9929H17.0282V49.086Z" fill="white"/>
<path d="M25.9833 49.086H21.168V30.0566H25.9833V49.086Z" fill="white"/>
<path d="M34.9423 49.086H30.127V33.6117H34.9423V49.086Z" fill="white"/>
<path d="M43.9012 49.086H39.0859V36.1182H43.9012V49.086Z" fill="white"/>
<path d="M52.8622 49.086H48.0469V43.5127H52.8622V49.086Z" fill="white"/>
<path d="M44.4815 22.0105H20.5918V19.9407H44.4815V22.0105Z" fill="white"/>
<path d="M99.7609 7.5902C97.2692 8.74377 93.9535 10.5999 94.5841 13.8982C95.2033 17.1342 99.1085 16.551 101.388 15.7774C103.078 15.2038 104.708 14.4345 106.211 13.4709C107.186 12.8458 108.558 11.7652 108.225 10.4255C107.939 9.27517 106.604 8.93895 105.578 9.14969C104.09 9.45511 102.391 10.3616 101.226 11.3168C100.167 12.1844 99.3433 13.5348 99.5508 14.9506C99.7401 16.2455 100.809 17.1683 101.998 17.5742C103.48 18.0806 105.49 17.9769 106.981 17.5246C107.886 17.2497 108.723 16.4297 108.132 15.4486C107.43 14.2882 105.974 14.5687 104.965 15.08C103.602 15.7699 101.99 16.6712 101.316 18.1169C100.804 19.2151 100.886 20.5771 101.881 21.3724C102.856 22.1518 104.263 22.1541 105.444 22.0646C106.422 21.9897 108.018 21.7858 108.174 20.5525C108.33 19.3091 106.801 18.7436 105.829 19.1107C104.324 19.679 103.381 21.5352 102.925 22.9724C102.386 24.67 102.395 26.487 102.919 28.1849C102.986 28.4008 103.327 28.3088 103.259 28.0912C102.578 25.8816 102.814 23.4539 103.981 21.447C104.539 20.485 105.641 18.9644 106.955 19.3905C107.658 19.6177 108.156 20.4487 107.533 21.0745C107.096 21.5144 106.358 21.6214 105.771 21.6843C104.919 21.7748 104.003 21.8114 103.165 21.5965C101.72 21.2246 101.001 19.9173 101.539 18.4904C101.978 17.3268 103.053 16.5967 104.076 15.9855C105.049 15.4055 106.989 14.1903 107.827 15.6269C108.765 17.2357 105.713 17.4066 104.874 17.4698C103.644 17.5625 102.341 17.5188 101.263 16.8405C100.124 16.1233 99.614 14.8842 100.028 13.5853C100.445 12.2787 101.529 11.4082 102.688 10.7682C103.592 10.2686 104.652 9.68595 105.672 9.48915C106.391 9.35071 107.299 9.46418 107.727 10.1467C108.24 10.9634 107.628 11.8556 107.037 12.4126C105.379 13.9737 102.875 14.9597 100.734 15.6188C98.5026 16.3052 94.8421 16.453 94.8746 13.1694C94.9021 10.3302 97.7108 8.92663 99.9385 7.89497C100.144 7.79932 99.9651 7.49553 99.7609 7.5902Z" fill="#1B1B43"/>
<path d="M74.1522 24.2158C74.7235 25.4177 75.2429 26.6371 75.7493 27.862L76.4889 29.7055L77.1986 31.5607L76.1393 31.2484L77.9174 29.854C78.5107 29.39 79.1157 28.942 79.7148 28.4855L80.4388 27.9336L80.7731 28.7711C81.014 29.3735 81.2374 29.9837 81.4705 30.5896C81.7013 31.1963 81.9153 31.8097 82.1377 32.4195C82.3478 33.0355 82.567 33.6464 82.7644 34.2673C82.9687 34.8849 83.1603 35.508 83.3386 36.1357L82.8283 36.3448C82.5161 35.7713 82.2159 35.1926 81.9286 34.6093C81.6349 34.0283 81.3625 33.4382 81.0811 32.852C80.813 32.2603 80.5351 31.6735 80.2744 31.0782C80.0164 30.4833 79.7482 29.8916 79.4976 29.2931L80.5559 29.5778C79.9616 30.0401 79.3738 30.5115 78.7746 30.967L76.9719 32.3291L76.2065 32.9078L75.9137 32.0178L75.2912 30.1322L74.6992 28.2355C74.3176 26.9665 73.9499 25.6933 73.6328 24.4009L74.1522 24.2158Z" fill="#FFA121"/>
<path d="M124.416 28.1029C124.1 29.3952 123.732 30.6684 123.349 31.9374L122.759 33.8341L122.136 35.7198L121.842 36.6094L121.078 36.031L119.275 34.669C118.676 34.2134 118.088 33.7417 117.494 33.2797L118.552 32.9947C118.301 33.5932 118.033 34.1852 117.775 34.7802C117.514 35.3754 117.237 35.9619 116.968 36.554C116.687 37.1398 116.415 37.7299 116.12 38.3109C115.834 38.8945 115.533 39.4729 115.221 40.0465L114.711 39.8373C114.889 39.21 115.08 38.5865 115.285 37.9692C115.483 37.3483 115.702 36.7375 115.912 36.1215C116.134 35.5113 116.349 34.8982 116.579 34.2912C116.812 33.6853 117.035 33.0754 117.276 32.4727L117.611 31.6352L118.335 32.1874C118.934 32.6439 119.539 33.092 120.133 33.5559L121.91 34.9504L120.851 35.2623L121.561 33.4074L122.3 31.5639C122.806 30.3387 123.326 29.1196 123.897 27.9178L124.416 28.1029Z" fill="#FFA121"/>
<mask id="mask0_4428_10289" style="mask-type:alpha" maskUnits="userSpaceOnUse" x="139" y="13" width="62" height="36">
<path d="M139.855 13.7529H200.196V48.8619H139.855V13.7529Z" fill="black"/>
</mask>
<g mask="url(#mask0_4428_10289)">
<mask id="mask1_4428_10289" style="mask-type:alpha" maskUnits="userSpaceOnUse" x="139" y="13" width="62" height="36">
<path d="M139.873 45.3202C139.873 47.2408 141.43 48.7971 143.35 48.7971H196.72C198.64 48.7971 200.197 47.2408 200.197 45.3202V13.7769H139.873V45.3202Z" fill="black"/>
</mask>
<g mask="url(#mask1_4428_10289)">
<path d="M139.871 45.3201C139.871 47.2408 141.428 48.7971 143.348 48.7971H196.718C198.638 48.7971 200.195 47.2408 200.195 45.3201V13.7769H139.871V45.3201Z" fill="white"/>
</g>
</g>
<mask id="mask2_4428_10289" style="mask-type:alpha" maskUnits="userSpaceOnUse" x="140" y="20" width="61" height="29">
<path d="M140.027 20.974H200.036V48.696H140.027V20.974Z" fill="black"/>
</mask>
<g mask="url(#mask2_4428_10289)">
<mask id="mask3_4428_10289" style="mask-type:alpha" maskUnits="userSpaceOnUse" x="139" y="13" width="62" height="36">
<path d="M139.881 45.3202C139.881 47.2409 141.438 48.7971 143.358 48.7971H196.727C198.648 48.7971 200.204 47.2409 200.204 45.3202V13.7769H139.881V45.3202Z" fill="black"/>
</mask>
<g mask="url(#mask3_4428_10289)">
<path d="M196.721 48.6214H143.351C141.531 48.6214 140.051 47.1406 140.051 45.3202V20.9846C142.352 21.1749 144.493 22.9027 145.071 25.1547C145.377 25.06 145.696 25.0143 146.016 25.0143C146.975 25.0143 147.94 25.4261 148.571 26.153C149.412 27.1234 149.614 28.5992 149.065 29.7596C151.629 30.1636 153.319 33.3425 152.221 35.6947C152.732 35.5586 153.26 35.4924 153.789 35.4924C155.061 35.4924 156.335 35.8773 157.38 36.6052C158.858 37.6362 159.849 39.3377 160.017 41.1322C160.692 38.78 163.048 37.0296 165.489 37.0296C165.559 37.0296 165.63 37.0312 165.7 37.0334C168.216 37.1391 170.531 39.1211 171.022 41.5903C172.954 38.6539 175.679 36.6732 178.764 35.5612C178.94 35.7469 179.114 35.9373 179.286 36.1337L179.803 35.3718C179.884 35.5255 179.963 35.6831 180.04 35.8442L180.748 34.9753C182.205 34.6358 183.718 34.4689 185.245 34.4689C190.541 34.4689 196.022 36.4635 200.022 40.1139V45.3202C200.022 47.1406 198.541 48.6214 196.721 48.6214Z" fill="#E3E3FF"/>
</g>
</g>
<mask id="mask4_4428_10289" style="mask-type:alpha" maskUnits="userSpaceOnUse" x="139" y="29" width="51" height="20">
<path d="M139.855 29.0249H189.655V48.8619H139.855V29.0249Z" fill="black"/>
</mask>
<g mask="url(#mask4_4428_10289)">
<mask id="mask5_4428_10289" style="mask-type:alpha" maskUnits="userSpaceOnUse" x="139" y="13" width="62" height="36">
<path d="M139.873 45.3202C139.873 47.2408 141.43 48.7971 143.35 48.7971H196.72C198.64 48.7971 200.197 47.2408 200.197 45.3202V13.7769H139.873V45.3202Z" fill="black"/>
</mask>
<g mask="url(#mask5_4428_10289)">
<path d="M133.204 32.4512C135.006 31.1057 136.955 29.8789 139.141 29.3478C141.326 28.8164 143.793 29.069 145.563 30.4557C147.333 31.8427 148.157 34.4944 147.086 36.4715C148.61 36.3347 150.178 37.1563 150.934 38.4859C151.691 39.8159 151.595 41.5835 150.699 42.8236C152.241 42.051 154.126 42.0011 155.706 42.6901C157.287 43.379 158.534 44.7939 159.018 46.449C161.218 44.6033 164.952 45.0562 166.647 47.3753C170.302 43.8978 175.887 41.9794 180.521 43.9733C183.209 45.1295 185.265 47.446 186.657 50.0197C188.049 52.5936 188.848 55.4387 189.636 58.2568L147.824 62.0381L130.328 56.4308L133.204 32.4512Z" fill="white"/>
</g>
</g>
<mask id="mask6_4428_10289" style="mask-type:alpha" maskUnits="userSpaceOnUse" x="165" y="19" width="16" height="15">
<path d="M165.924 19.646H180.034V33.673H165.924V19.646Z" fill="black"/>
</mask>
<g mask="url(#mask6_4428_10289)">
<mask id="mask7_4428_10289" style="mask-type:alpha" maskUnits="userSpaceOnUse" x="139" y="13" width="62" height="36">
<path d="M139.883 45.3202C139.883 47.2408 141.44 48.7971 143.36 48.7971H196.729C198.65 48.7971 200.206 47.2408 200.206 45.3202V13.7769H139.883V45.3202Z" fill="black"/>
</mask>
<g mask="url(#mask7_4428_10289)">
<path d="M176.82 21.2809C175.578 20.7631 174.293 20.6999 173.233 21.0112C172.57 20.1838 171.552 19.6524 170.409 19.6524C168.411 19.6524 166.79 21.2735 166.79 23.2723C166.79 23.7926 166.902 24.2864 167.099 24.7329C166.395 25.2111 165.932 26.0187 165.932 26.934C165.932 28.2182 166.842 29.2898 168.053 29.5372C168.032 29.6954 168.017 29.8565 168.017 30.0209C168.017 32.0194 169.637 33.6398 171.636 33.6398C173.348 33.6398 174.779 32.4503 175.155 30.8541C175.536 31.0649 175.975 31.1861 176.44 31.1861C177.908 31.1861 179.097 29.9969 179.097 28.5295C179.097 28.1907 179.031 27.8687 178.916 27.5714C179.292 27.266 179.589 26.885 179.777 26.4337C180.545 24.5886 179.222 22.2811 176.82 21.2809Z" fill="#FFF2E0"/>
</g>
</g>
<mask id="mask8_4428_10289" style="mask-type:alpha" maskUnits="userSpaceOnUse" x="156" y="18" width="8" height="8">
<path d="M156.467 18.4839H163.688V25.6219H156.467V18.4839Z" fill="black"/>
</mask>
<g mask="url(#mask8_4428_10289)">
<mask id="mask9_4428_10289" style="mask-type:alpha" maskUnits="userSpaceOnUse" x="139" y="13" width="62" height="36">
<path d="M139.875 45.3202C139.875 47.2409 141.432 48.7971 143.352 48.7971H196.722C198.642 48.7971 200.198 47.2409 200.198 45.3202V13.777H139.875V45.3202Z" fill="black"/>
</mask>
<g mask="url(#mask9_4428_10289)">
<path d="M162.006 19.3172C161.381 19.0575 160.734 19.0251 160.2 19.182C159.866 18.7654 159.354 18.4982 158.778 18.4982C157.772 18.4982 156.956 19.314 156.956 20.3207C156.956 20.5823 157.012 20.8313 157.112 21.056C156.757 21.2969 156.523 21.7035 156.523 22.1642C156.523 22.8107 156.982 23.3502 157.591 23.4747C157.581 23.5544 157.574 23.6358 157.574 23.7178C157.574 24.7249 158.39 25.5406 159.396 25.5406C160.258 25.5406 160.978 24.9421 161.168 24.138C161.36 24.244 161.581 24.3056 161.815 24.3056C162.554 24.3056 163.152 23.7065 163.152 22.9676C163.152 22.7974 163.12 22.6349 163.062 22.4855C163.251 22.3318 163.401 22.1392 163.495 21.9119C163.882 20.983 163.216 19.821 162.006 19.3172Z" fill="#FFF2E0"/>
</g>
</g>
<mask id="mask10_4428_10289" style="mask-type:alpha" maskUnits="userSpaceOnUse" x="148" y="16" width="4" height="4">
<path d="M148.996 16.9899H151.486V19.7289H148.996V16.9899Z" fill="black"/>
</mask>
<g mask="url(#mask10_4428_10289)">
<mask id="mask11_4428_10289" style="mask-type:alpha" maskUnits="userSpaceOnUse" x="139" y="13" width="62" height="36">
<path d="M139.883 45.3202C139.883 47.2408 141.44 48.7971 143.36 48.7971H196.729C198.65 48.7971 200.206 47.2408 200.206 45.3202V13.7769H139.883V45.3202Z" fill="black"/>
</mask>
<g mask="url(#mask11_4428_10289)">
<path d="M151.44 18.2349C151.533 18.5669 151.485 18.9304 151.21 19.2708C150.562 20.0726 149.416 19.7156 149.128 18.811C149.015 18.4583 148.963 18.0705 149.08 17.7194C149.495 16.4754 151.151 17.2006 151.44 18.2349Z" fill="#D1D1FF"/>
</g>
</g>
<mask id="mask12_4428_10289" style="mask-type:alpha" maskUnits="userSpaceOnUse" x="160" y="31" width="3" height="3">
<path d="M160.688 31.2659H162.348V33.0089H160.688V31.2659Z" fill="black"/>
</mask>
<g mask="url(#mask12_4428_10289)">
<mask id="mask13_4428_10289" style="mask-type:alpha" maskUnits="userSpaceOnUse" x="139" y="13" width="62" height="36">
<path d="M139.873 45.3202C139.873 47.2408 141.43 48.7971 143.35 48.7971H196.72C198.64 48.7971 200.197 47.2408 200.197 45.3202V13.7769H139.873V45.3202Z" fill="black"/>
</mask>
<g mask="url(#mask13_4428_10289)">
<path d="M162.254 32.0103C162.313 32.2214 162.282 32.4519 162.108 32.6685C161.696 33.1775 160.968 32.9509 160.786 32.3763C160.714 32.1523 160.68 31.9059 160.755 31.6825C161.019 30.8934 162.07 31.3538 162.254 32.0103Z" fill="#D1D1FF"/>
</g>
</g>
<mask id="mask14_4428_10289" style="mask-type:alpha" maskUnits="userSpaceOnUse" x="185" y="21" width="3" height="3">
<path d="M185.844 21.389H187.504V23.132H185.844V21.389Z" fill="black"/>
</mask>
<g mask="url(#mask14_4428_10289)">
<mask id="mask15_4428_10289" style="mask-type:alpha" maskUnits="userSpaceOnUse" x="139" y="13" width="62" height="36">
<path d="M139.877 45.3202C139.877 47.2409 141.434 48.7971 143.354 48.7971H196.724C198.644 48.7971 200.2 47.2409 200.2 45.3202V13.7769H139.877V45.3202Z" fill="black"/>
</mask>
<g mask="url(#mask15_4428_10289)">
<path d="M187.424 22.1402C187.483 22.3499 187.452 22.5817 187.277 22.7974C186.866 23.307 186.138 23.0804 185.955 22.5062C185.884 22.2812 185.851 22.0354 185.925 21.8124C186.188 21.0229 187.241 21.4826 187.424 22.1402Z" fill="#D1D1FF"/>
</g>
</g>
<path d="M140.052 13.953V45.3202C140.052 47.1407 141.533 48.6214 143.352 48.6214H196.722C198.542 48.6214 200.023 47.1407 200.023 45.3202V13.953H140.052ZM196.722 48.9732H143.352C141.338 48.9732 139.699 47.3349 139.699 45.3202V13.6012H200.375V45.3202C200.375 47.3349 198.736 48.9732 196.722 48.9732Z" fill="#9192FF"/>
<path d="M196.724 0.201599H143.354C141.434 0.201599 139.877 1.7585 139.877 3.67852V13.777H200.2V3.67852C200.2 1.7585 198.644 0.201599 196.724 0.201599Z" fill="white"/>
<path d="M140.052 13.6012H200.023V3.67852C200.023 1.859 198.542 0.378293 196.722 0.378293H143.352C141.533 0.378293 140.052 1.859 140.052 3.67852V13.6012ZM200.375 13.953H139.699V3.67852C139.699 1.66414 141.338 0.0255432 143.352 0.0255432H196.722C198.736 0.0255432 200.375 1.66414 200.375 3.67852V13.953Z" fill="#9192FF"/>
<path d="M150.589 6.98944C150.589 8.38455 149.458 9.51575 148.062 9.51575C146.666 9.51575 145.535 8.38455 145.535 6.98944C145.535 5.594 146.666 4.4628 148.062 4.4628C149.458 4.4628 150.589 5.594 150.589 6.98944Z" fill="#D1D1FF"/>
<path d="M185.025 9.222H156.938C155.705 9.222 154.705 8.22275 154.705 6.98943C154.705 5.75675 155.705 4.75653 156.938 4.75653H185.025C186.258 4.75653 187.258 5.75675 187.258 6.98943C187.258 8.22275 186.258 9.222 185.025 9.222Z" fill="white"/>
<path d="M156.937 4.93261C155.802 4.93261 154.88 5.85566 154.88 6.98945C154.88 8.12324 155.802 9.04597 156.937 9.04597H185.023C186.157 9.04597 187.079 8.12324 187.079 6.98945C187.079 5.85566 186.157 4.93261 185.023 4.93261H156.937ZM185.023 9.39872H156.937C155.608 9.39872 154.527 8.3181 154.527 6.98945C154.527 5.66145 155.608 4.58051 156.937 4.58051H185.023C186.351 4.58051 187.432 5.66145 187.432 6.98945C187.432 8.3181 186.351 9.39872 185.023 9.39872Z" fill="#9192FF"/>
<path d="M183.261 30.2758C183.261 30.2758 178.198 25.5108 173.134 25.4112L176.808 27.8938L169.957 26.6021L176.311 29.7794L168.865 30.2758C172.854 30.9829 176.379 32.8148 179.289 36.1338L183.261 30.2758Z" fill="#FFA121"/>
<path d="M179.93 35.1877L182.312 31.6735C182.64 32.1216 182.823 32.4296 182.823 32.4296L180.751 34.9754C180.474 35.0399 180.202 35.1106 179.93 35.1877Z" fill="white"/>
<path d="M180.044 35.8442C179.967 35.6831 179.888 35.5255 179.807 35.3719L179.931 35.1877C180.203 35.1105 180.476 35.0399 180.752 34.9753L180.044 35.8442Z" fill="#F4F4FF"/>
<path d="M179.805 35.3719C178.663 33.2223 177.094 31.847 175.199 31.0676L179.2 31.4501L176.202 28.7935L179.681 30.2765L178.022 28.3227C179.908 28.7063 181.525 30.5961 182.312 31.6735L179.93 35.1877L179.805 35.3719Z" fill="#FFD9A6"/>
<path d="M201.556 41.2983C198.848 36.5598 200.535 30.2891 197.929 28.6807L192.758 35.085L201.556 41.2983Z" fill="#3335CF"/>
<path d="M197.928 28.6806L197.259 28.609C196.546 28.5318 195.834 28.7643 195.304 29.2467L190.932 33.2213L192.756 35.0849L197.928 28.6806Z" fill="#C5C5FF"/>
<path d="M193.901 50.7758C188.699 49.1268 182.923 52.0957 180.803 49.8871L185.975 43.4828L193.901 50.7758Z" fill="#3335CF"/>
<path d="M180.802 49.8872L180.591 49.2478C180.366 48.5673 180.444 47.8229 180.803 47.203L183.768 42.0916L185.974 43.4829L180.802 49.8872Z" fill="#C5C5FF"/>
<path d="M206.927 53.4983L205.045 48.2187L201.369 52.7714L206.927 53.4983Z" fill="#1B1B43"/>
<path d="M181.094 38.2156C184.888 46.3305 191.875 52.6735 201.369 52.7688L205.043 48.2187C202.952 38.9584 195.28 33.4629 186.547 31.4618L181.094 38.2156Z" fill="#C5C5FF"/>
<path d="M186.551 31.4618L184.535 28.4897L177.766 36.8727L181.097 38.2156L186.551 31.4618Z" fill="#3335CF"/>
<path d="M179.123 31.0426C179.389 30.7141 179.87 30.6626 180.199 30.9281L187.095 36.4975C187.425 36.7631 187.475 37.2452 187.211 37.574C186.945 37.9027 186.463 37.9539 186.134 37.6884L179.238 32.1193C178.909 31.8534 178.858 31.3713 179.123 31.0426Z" fill="#1B1B43"/>
<path d="M195.828 48.6577C194.449 47.544 194.234 45.5228 195.348 44.1443C196.461 42.7647 198.483 42.5498 199.862 43.6628C201.241 44.7768 201.456 46.7977 200.343 48.1772C199.229 49.5568 197.208 49.7717 195.828 48.6577Z" fill="white"/>
<path d="M196.609 47.6867C195.767 47.0062 195.636 45.7712 196.317 44.9286C196.997 44.0862 198.231 43.9543 199.074 44.6348C199.916 45.3153 200.048 46.5503 199.368 47.3929C198.687 48.2353 197.453 48.3666 196.609 47.6867Z" fill="#1B1B43"/>
<path d="M198.649 46.2351C198.495 46.1106 198.471 45.8847 198.595 45.7303C198.72 45.577 198.946 45.5527 199.099 45.6772C199.254 45.8017 199.278 46.0276 199.153 46.182C199.029 46.3353 198.803 46.3596 198.649 46.2351Z" fill="white"/>
<path d="M115.128 64.524L102.878 63.7802L86.8926 68.0042C81.2868 69.4842 76.7351 73.5742 74.6692 78.9893L64.6816 105.145L84.3079 87.754L89.7136 115.136L126.38 115.018L126.262 77.0006L115.128 64.524Z" fill="#3335CF"/>
<path d="M105.358 78.718C103.138 78.718 101.064 77.8539 99.6934 76.3259L99.9557 76.0902C101.423 77.7252 103.743 78.5643 106.158 78.327C108.747 78.0754 111.009 76.6281 112.365 74.3546L112.668 74.5356C111.254 76.9059 108.894 78.4158 106.192 78.6781C105.913 78.7047 105.634 78.718 105.358 78.718Z" fill="#C5C5FF"/>
<path d="M106.884 73.9338C104.535 75.0692 101.651 73.9477 100.47 71.438L100.072 70.5882L96.0314 62.0032L93.5605 56.747L105.502 50.9752L110.702 62.0239C112.838 66.5692 111.135 71.8786 106.884 73.9338Z" fill="#FFBC96"/>
<path d="M106.634 59.7855C105.584 64.9049 102.957 68.4127 100.066 70.5882L96.0254 62.0032L106.634 59.7855Z" fill="#1B1B43"/>
<path d="M108.04 53.3796C108.04 59.5625 104.554 63.7994 100.134 65.9839C95.5839 68.2324 90.8328 59.5946 88.5636 53.8202C86.2082 47.827 92.6922 43.3324 98.1213 43.3324C103.549 43.3324 108.04 47.1977 108.04 53.3796Z" fill="#FFBC96"/>
<path d="M108.283 49.8547C107.754 43.5085 106.464 37.5091 100.585 39.043C98.3524 35.9289 89.0101 35.9869 86.7185 43.3904C85.24 48.1672 80.4902 50.5002 80.4902 50.5002C86.1897 53.4976 91.4436 52.3752 98.7642 46.7986C101.056 50.1485 107.578 50.3832 107.578 50.3832L108.283 49.8547Z" fill="#1B1B43"/>
<path d="M110.108 52.8401C109.85 54.8438 108.372 56.3054 106.806 56.1047C105.239 55.9037 104.178 54.1166 104.435 52.1132C104.692 50.1086 106.17 48.648 107.737 48.8487C109.303 49.0497 110.364 50.8365 110.108 52.8401Z" fill="#FFBC96"/>
<path d="M107.843 50.9626C107.464 51.2754 107.339 51.6998 107.343 52.1528C107.346 52.3778 107.381 52.6054 107.447 52.8226C107.515 53.0392 107.608 53.2435 107.764 53.4237L107.66 53.602C107.369 53.5067 107.153 53.2619 107.019 53.0035C106.883 52.7422 106.816 52.4491 106.816 52.1547C106.819 51.8607 106.884 51.5562 107.049 51.2962C107.207 51.0349 107.472 50.8332 107.757 50.7742L107.843 50.9626Z" fill="#1B1B43"/>
<path d="M98.8202 54.7293C98.8569 55.2802 98.4882 55.7526 97.9967 55.785C97.5055 55.8181 97.0782 55.3982 97.0416 54.848C97.0049 54.2968 97.3736 53.8244 97.8641 53.792C98.3553 53.7589 98.7836 54.1788 98.8202 54.7293Z" fill="#1B1B43"/>
<path d="M94.0083 56.2862C94.1892 56.7528 93.9976 57.2615 93.581 57.4233C93.1644 57.5844 92.6803 57.3364 92.4994 56.8698C92.3195 56.4026 92.5101 55.8936 92.9267 55.7318C93.3437 55.5707 93.8274 55.819 94.0083 56.2862Z" fill="#1B1B43"/>
<path d="M100.345 52.2102C100.364 52.49 98.8788 52.4002 98.2414 52.5347C97.6961 52.6492 96.8667 53.1805 96.4932 52.6508C96.1557 52.1729 97.0029 51.6308 98.053 51.5611C99.1038 51.4914 100.326 51.9304 100.345 52.2102Z" fill="#1B1B43"/>
<path d="M90.7767 55.2828C90.9436 55.511 91.7013 54.7242 92.1371 54.5219C92.509 54.349 93.3001 54.3666 93.1697 53.769C93.0527 53.2302 92.2441 53.213 91.6232 53.6653C91.0033 54.1176 90.61 55.0539 90.7767 55.2828Z" fill="#1B1B43"/>
<path d="M96.7207 61.5743C97.0611 61.1651 97.5458 60.9002 98.038 60.7342C98.5344 60.5714 99.0457 60.5001 99.5612 60.5384L99.5991 60.741C99.1313 60.9634 98.6573 61.087 98.2008 61.2348C97.74 61.3775 97.3075 61.5467 96.8452 61.7393L96.7207 61.5743Z" fill="#1B1B43"/>
<path d="M95.3838 57.1461C95.4094 57.5296 95.353 57.9388 95.1546 58.3123C95.0593 58.4991 94.9215 58.6676 94.7827 58.8077C94.6459 58.9481 94.5065 59.0651 94.4741 59.1491C94.4634 59.1922 94.4442 59.2253 94.4543 59.2885C94.4517 59.3265 94.4624 59.3291 94.4598 59.3349C94.4618 59.344 94.4767 59.3573 94.4857 59.3738C94.5503 59.4477 94.7065 59.5233 94.8615 59.5806C95.1822 59.6944 95.5446 59.7716 95.9026 59.8562L95.8974 60.0628C95.5126 60.115 95.1296 60.1127 94.7331 60.0264C94.5347 59.9775 94.3298 59.9201 94.1204 59.7382C94.0724 59.6844 94.0202 59.6264 93.9868 59.5508C93.9527 59.4694 93.9313 59.3838 93.932 59.3274C93.9129 59.2055 93.9388 59.0502 93.9984 58.9225C94.1353 58.6709 94.3071 58.5597 94.4336 58.442C94.5655 58.3272 94.6725 58.2102 94.7688 58.0782C94.9598 57.8137 95.0791 57.4797 95.178 57.1253L95.3838 57.1461Z" fill="#D28572"/>
<path d="M102.749 58.4841C101.572 58.4841 100.58 57.5705 100.501 56.3783C100.419 55.1359 101.359 54.0618 102.602 53.9797C102.653 53.9755 102.703 53.9739 102.753 53.9739C103.931 53.9739 104.922 54.8885 105.001 56.0797C105.084 57.3221 104.143 58.3969 102.901 58.4793C102.849 58.4825 102.799 58.4841 102.749 58.4841Z" fill="#FFA988"/>
<path d="M135.556 77.2969C132.073 69.9712 124.884 65.1199 116.786 64.6261L115.133 64.524L127.328 92.2943L140.677 87.3389L135.556 77.2969Z" fill="#3335CF"/>
<path d="M92.9456 59.1981C92.8136 57.1704 93.1664 52.4112 91.9321 52.9397C90.6981 53.4685 90.3901 60.3426 90.3901 60.3426C90.3901 60.3426 90.2131 48.8853 88.8909 49.4138C87.5687 49.9426 87.5687 58.2277 84.6605 67.0416L68.3254 101.54C66.3606 105.69 68.8357 110.579 73.3433 111.451C76.6503 112.091 79.9454 110.297 81.2027 107.172C85.4341 96.6593 93.2046 73.9727 93.9591 69.5539C94.5764 65.9402 94.4172 64.3771 94.1783 63.4483C93.7847 61.9128 93.0484 60.779 92.9456 59.1981Z" fill="#FFBC96"/>
<path d="M84.7656 66.2787C85.2652 64.9199 85.5921 63.4992 85.8959 62.0797C86.1964 60.658 86.448 59.2263 86.7067 57.7945L87.4729 53.4951C87.6084 52.7789 87.7478 52.0623 87.9154 51.3494C88 50.9927 88.0905 50.6374 88.2033 50.283C88.2614 50.106 88.3236 49.9293 88.4043 49.7532C88.4439 49.6664 88.4912 49.5775 88.5502 49.4893C88.6141 49.4063 88.6822 49.301 88.854 49.2478L88.8407 49.2514C88.8913 49.2413 88.9461 49.2355 88.9986 49.2345C89.0476 49.242 89.0956 49.2611 89.1429 49.2796C89.2168 49.3233 89.2882 49.3807 89.3271 49.4365C89.4234 49.55 89.4765 49.6647 89.5297 49.7798C89.6309 50.0097 89.7041 50.2415 89.7644 50.474C89.8883 50.9386 89.9745 51.4058 90.0501 51.874C90.1969 52.8093 90.2981 53.7489 90.3762 54.6895C90.5289 56.5709 90.6103 58.4559 90.5922 60.3451L90.1911 60.3367C90.2352 59.27 90.3156 58.2111 90.4359 57.1519C90.5646 56.0937 90.7124 55.0348 91.0451 53.9973C91.1365 53.7392 91.2361 53.4818 91.3897 53.2354C91.4701 53.1141 91.5606 52.9912 91.6952 52.8917C91.8222 52.7847 92.0203 52.7331 92.2016 52.7581C92.2437 52.7678 92.2846 52.7827 92.3251 52.797C92.3676 52.8152 92.4016 52.8145 92.4545 52.8619C92.4794 52.881 92.5028 52.9017 92.5242 52.9231C92.5433 52.9439 92.5501 52.9604 92.5624 52.9795C92.5842 53.0152 92.6124 53.0551 92.6247 53.0891C92.6869 53.2285 92.7278 53.3631 92.7618 53.4967C92.8306 53.7648 92.8704 54.0303 92.9094 54.2968C93.0471 55.3626 93.0838 56.4283 93.0747 57.494C93.0711 58.0309 93.0371 58.5522 93.0838 59.0684C93.1253 59.5865 93.22 60.1 93.3535 60.6048C93.4887 61.1103 93.6589 61.6073 93.8457 62.1005C94.0367 62.5884 94.2276 63.1055 94.3346 63.6318C94.5619 64.6858 94.5869 65.77 94.4889 66.8324C94.391 67.8956 94.1835 68.9438 93.9054 69.9706L93.7526 69.9307C94.0091 68.9065 94.1952 67.8641 94.273 66.8149C94.3495 65.7674 94.3038 64.7085 94.0655 63.6924C93.9501 63.1811 93.7744 62.6996 93.575 62.2032C93.3834 61.7062 93.2057 61.2008 93.0647 60.683C92.9236 60.1642 92.8221 59.6328 92.7751 59.0943C92.7236 58.5538 92.755 58.0137 92.7544 57.4914C92.7566 56.4383 92.7135 55.3807 92.5725 54.3442C92.5336 54.0868 92.4927 53.8277 92.4272 53.5829C92.3958 53.461 92.3575 53.3414 92.3108 53.2386C92.3001 53.2104 92.2862 53.1977 92.2752 53.1763C92.2619 53.1481 92.2528 53.1465 92.2528 53.1465C92.2629 53.1397 92.2246 53.1332 92.2064 53.1258C92.1847 53.1199 92.1633 53.1092 92.1416 53.1034C91.9857 53.0784 91.8164 53.2162 91.6903 53.4253C91.5638 53.6303 91.4711 53.8702 91.3871 54.1117C91.0775 55.097 90.9339 56.1501 90.8146 57.1944C90.7017 58.241 90.6285 59.2982 90.5922 60.349L90.1911 60.34C90.2086 58.4676 90.1473 56.5894 90.0037 54.72C89.9314 53.7856 89.8367 52.8525 89.6963 51.9288C89.626 51.468 89.543 51.0083 89.4266 50.5635C89.3702 50.3401 89.3014 50.1219 89.2152 49.9212C89.1721 49.823 89.1212 49.7228 89.0641 49.657C89.0375 49.6155 89.0077 49.6031 88.987 49.584C88.9779 49.585 88.9711 49.5782 88.9636 49.5749C88.9578 49.5798 88.9536 49.5798 88.9455 49.5759L88.9328 49.5798C88.9263 49.5791 88.8689 49.6213 88.8284 49.6845C88.7859 49.7477 88.7454 49.8191 88.7104 49.8969C88.6381 50.0512 88.5778 50.2182 88.522 50.3868C88.4118 50.7253 88.3204 51.0748 88.2348 51.4259C88.0655 52.1288 87.9219 52.8411 87.7835 53.5541L86.9924 57.8467C86.7317 59.2794 86.4464 60.7086 86.1235 62.1297C85.7931 63.5488 85.4419 64.9688 84.9125 66.3361L84.7656 66.2787Z" fill="#D28572"/>
<path d="M147.056 106.718C146.996 110.78 145.226 113.618 143.009 115.254L138.507 115.183L137.393 115.165H137.368L132.076 103.118L132.066 103.09L127.324 92.2949L140.671 87.3383L145.653 99.5649C146.676 102.269 147.088 104.652 147.056 106.718Z" fill="#FFBC96"/>
<path d="M143.364 101.856L108.325 105.777L103.765 104.303C101.702 103.637 99.441 104.047 97.747 105.401C93.7714 108.576 87.3075 114.429 88.9824 114.9C91.8034 115.693 95.4869 114.21 98.7939 113.379C100.62 112.92 102.55 113.137 104.226 113.995L106.518 115.17L141.425 115.165L143.364 101.856Z" fill="#FFBC96"/>
<path d="M89.8164 114.28C90.7618 113.727 91.7222 113.202 92.6848 112.683C93.6451 112.16 94.6229 111.668 95.5907 111.159C96.068 110.909 96.5793 110.651 97.1123 110.466C97.646 110.284 98.1968 110.15 98.7564 110.088C99.3157 110.026 99.8795 110.019 100.437 110.069C100.993 110.13 101.543 110.238 102.068 110.418L102.014 110.618C101.484 110.514 100.949 110.444 100.414 110.438C99.8795 110.421 99.3455 110.456 98.8213 110.545C98.2973 110.634 97.7818 110.766 97.2864 110.952C96.7852 111.128 96.3238 111.378 95.829 111.626C94.848 112.111 93.8759 112.612 92.8874 113.082C91.9021 113.556 90.9136 114.023 89.9101 114.464L89.8164 114.28Z" fill="#D28572"/>
<path d="M90.3262 112.529C90.9626 111.927 91.6286 111.361 92.3075 110.811C92.9848 110.257 93.6828 109.729 94.3964 109.222C95.1152 108.721 95.8424 108.229 96.616 107.804C97.3919 107.397 98.182 106.952 99.1093 106.866L99.1268 107.072C98.7257 107.177 98.3347 107.333 97.9622 107.549C97.5812 107.74 97.2161 107.973 96.8517 108.201C96.1229 108.662 95.4115 109.158 94.7002 109.652C93.9882 110.147 93.2886 110.663 92.5788 111.165C91.8733 111.673 91.1711 112.188 90.4581 112.689L90.3262 112.529Z" fill="#D28572"/>
<path d="M132.027 103.355L132.014 102.826L136.715 102.708L136.727 103.237L132.027 103.355Z" fill="#D28572"/>
<path d="M127.166 92.3721L123.754 85.4235L124.07 85.2675L127.482 92.2171L127.166 92.3721Z" fill="#EBEBFF"/>
<path d="M143.009 115.254L138.955 115.19L138.507 115.183L138.504 115.165H141.423L142.626 106.908C143.401 106.605 144.244 106.44 145.125 106.44C145.795 106.44 146.444 106.535 147.057 106.718C146.996 110.78 145.227 113.618 143.009 115.254Z" fill="#FFA988"/>
<path d="M138.506 115.165C138.34 114.576 138.252 113.956 138.252 113.314C138.252 110.399 140.064 107.91 142.627 106.909C142.628 106.908 142.628 106.908 142.628 106.908L141.425 115.165H138.506Z" fill="#FFA988"/>
<path d="M91.2435 115.144H71.1484V110.914H91.2435V115.144Z" fill="#1B1B43"/>
<path d="M77.9633 115.144H46.0569L36.8906 83.2382H68.7967L77.9633 115.144Z" fill="#EBEBFF"/>
<path d="M45.9314 115.181L36.7168 83.1059H46.5873V83.3708H37.0676L46.1856 115.108L45.9314 115.181Z" fill="#1B1B43"/>
<path d="M74.548 103.48L68.6997 83.3708H53.9922V83.1059H68.8981L74.8018 103.406L74.548 103.48Z" fill="#1B1B43"/>
<path d="M78.495 5.4332C78.495 6.89381 77.3103 8.07753 75.8504 8.07753C74.3904 8.07753 73.207 6.89381 73.207 5.4332C73.207 3.97324 74.3904 2.78952 75.8504 2.78952C77.3103 2.78952 78.495 3.97324 78.495 5.4332Z" fill="#EBEBFF"/>
<path d="M23.2028 68.5404C23.2028 70.4222 21.677 71.9483 19.7946 71.9483C17.9125 71.9483 16.3867 70.4222 16.3867 68.5404C16.3867 66.658 17.9125 65.1326 19.7946 65.1326C21.677 65.1326 23.2028 66.658 23.2028 68.5404Z" fill="#EBEBFF"/>
<path d="M189.369 75.2385C189.369 76.6994 188.184 77.8828 186.724 77.8828C185.264 77.8828 184.08 76.6994 184.08 75.2385C184.08 73.7785 185.264 72.5951 186.724 72.5951C188.184 72.5951 189.369 73.7785 189.369 75.2385Z" fill="#EBEBFF"/>
<path d="M181.858 68.6941L181.73 68.3654C182.16 68.1984 182.612 68.1005 183.076 68.0732L183.095 68.426C182.67 68.45 182.253 68.5404 181.858 68.6941ZM185.52 69.0475C185.16 68.8202 184.769 68.6516 184.357 68.5463L184.444 68.2052C184.892 68.3196 185.317 68.5022 185.708 68.7496L185.52 69.0475ZM179.91 70.2676L179.616 70.0743C179.87 69.6885 180.18 69.3455 180.54 69.055L180.761 69.3289C180.43 69.5961 180.144 69.9125 179.91 70.2676ZM187.132 70.9633C186.971 70.5707 186.75 70.2063 186.476 69.8801L186.746 69.6535C187.044 70.0079 187.284 70.4031 187.458 70.8298L187.132 70.9633ZM178.889 72.6937C178.886 72.6366 178.886 72.5776 178.885 72.5196C178.885 72.1137 178.94 71.7126 179.047 71.3268L179.386 71.4205C179.287 71.7758 179.238 72.1451 179.238 72.5186C179.238 72.5718 179.239 72.6256 179.241 72.6797L178.889 72.6937ZM187.578 73.8781L187.242 73.7704C187.372 73.3668 187.437 72.9453 187.437 72.5186C187.437 72.41 187.433 72.302 187.425 72.1967L187.776 72.1684C187.785 72.2845 187.79 72.4016 187.79 72.5186C187.79 72.9826 187.718 73.44 187.578 73.8781ZM179.819 75.2469C179.535 74.8815 179.311 74.4766 179.153 74.0434L179.484 73.9221C179.63 74.3213 179.836 74.6941 180.097 75.031L179.819 75.2469ZM185.997 76.0892L185.786 75.8072C186.127 75.5523 186.426 75.2476 186.673 74.9023L186.96 75.1075C186.692 75.4826 186.368 75.813 185.997 76.0892ZM182.062 76.7856C181.62 76.6527 181.202 76.4536 180.82 76.1914L181.02 75.9009C181.372 76.1418 181.756 76.3259 182.163 76.4478L182.062 76.7856ZM183.425 76.9698L183.418 76.6171C183.846 76.6089 184.265 76.535 184.666 76.3982L184.78 76.7318C184.345 76.8803 183.889 76.9607 183.425 76.9698Z" fill="#9192FF"/>
<path d="M124.15 9.66359C123.276 9.66359 122.564 10.3756 122.564 11.2506C122.564 12.1254 123.276 12.8367 124.15 12.8367C125.025 12.8367 125.737 12.1254 125.737 11.2506C125.737 10.3756 125.025 9.66359 124.15 9.66359ZM124.15 13.1895C123.081 13.1895 122.211 12.3196 122.211 11.2506C122.211 10.1814 123.081 9.31149 124.15 9.31149C125.22 9.31149 126.09 10.1814 126.09 11.2506C126.09 12.3196 125.22 13.1895 124.15 13.1895Z" fill="#9192FF"/>
<path d="M191.603 115.4H17.9121V114.871H191.603V115.4Z" fill="#1B1B43"/>
</svg>
